<mxfile host="app.diagrams.net" modified="2023-11-01T15:44:34.530Z" agent="Mozilla/5.0 (Windows NT 10.0; Win64; x64) AppleWebKit/537.36 (KHTML, like Gecko) Chrome/118.0.0.0 Safari/537.36" version="22.0.8" etag="GwDTAiRlFrIglOUr965w" type="github">
  <diagram name="Страница — 1" id="hprdBknnlUNOs0vlrVkV">
    <mxGraphModel>
      <root>
        <mxCell id="0" />
        <mxCell id="1" parent="0" />
      </root>
    </mxGraphModel>
  </diagram>
</mxfile>
